<svg width="192" height="192" viewBox="0 0 192 192" fill="none" xmlns="http://www.w3.org/2000/svg">
<g clip-path="url(#clip0_1_36)">
<mask id="mask0_1_36" style="mask-type:luminance" maskUnits="userSpaceOnUse" x="0" y="15" width="192" height="162">
<path d="M191.979 15H0V176.764H191.979V15Z" fill="white"/>
</mask>
<g mask="url(#mask0_1_36)">
<path opacity="0.24" d="M191.979 125.844C191.979 175.536 150.737 176.764 99.2309 176.764C47.7247 176.764 5.45862 175.536 5.45862 125.844C5.45862 76.1534 47.2126 35.8702 98.7188 35.8702C150.225 35.8702 191.979 76.1531 191.979 125.844H191.979Z" fill="#BA499B"/>
<path d="M173.66 122.17C173.66 162.51 140.179 163.507 98.3659 163.507C56.5524 163.507 22.2402 162.51 22.2402 122.17C22.2402 81.8295 56.1366 49.1278 97.9498 49.1278C139.763 49.1278 173.66 81.8298 173.66 122.17Z" fill="#EE499A"/>
<path d="M77.4318 90.7612C77.4318 87.8261 74.9656 85.4468 71.9234 85.4468C68.8811 85.4468 66.4149 87.8261 66.4149 90.7612V119.434C66.4149 122.369 68.8811 124.749 71.9234 124.749C74.9656 124.749 77.4318 122.369 77.4318 119.434V90.7612Z" fill="black"/>
<path d="M69.9164 96.3501C71.7401 96.3501 73.2186 94.9238 73.2186 93.1644C73.2186 91.4049 71.7401 89.9786 69.9164 89.9786C68.0928 89.9786 66.6143 91.4049 66.6143 93.1644C66.6143 94.9238 68.0928 96.3501 69.9164 96.3501Z" fill="#FFF7F4"/>
<path d="M72.877 113.927C74.3234 113.927 75.4961 112.796 75.4961 111.401C75.4961 110.005 74.3234 108.874 72.877 108.874C71.4307 108.874 70.2579 110.005 70.2579 111.401C70.2579 112.796 71.4307 113.927 72.877 113.927Z" fill="#FFF7F4"/>
<path d="M132.773 91.4201C132.773 88.4851 130.307 86.1057 127.265 86.1057C124.222 86.1057 121.756 88.4851 121.756 91.4201V120.093C121.756 123.028 124.222 125.408 127.265 125.408C130.307 125.408 132.773 123.028 132.773 120.093V91.4201Z" fill="black"/>
<path d="M125.258 97.0091C127.081 97.0091 128.56 95.5828 128.56 93.8234C128.56 92.064 127.081 90.6376 125.258 90.6376C123.434 90.6376 121.955 92.064 121.955 93.8234C121.955 95.5828 123.434 97.0091 125.258 97.0091Z" fill="#FFF7F4"/>
<path d="M128.218 114.587C129.665 114.587 130.837 113.455 130.837 112.06C130.837 110.665 129.665 109.533 128.218 109.533C126.772 109.533 125.599 110.665 125.599 112.06C125.599 113.455 126.772 114.587 128.218 114.587Z" fill="#FFF7F4"/>
<path opacity="0.24" d="M12.6396 39.3884C19.6202 39.3884 25.2791 33.9289 25.2791 27.1942C25.2791 20.4595 19.6202 15 12.6396 15C5.65892 15 0 20.4595 0 27.1942C0 33.9289 5.65892 39.3884 12.6396 39.3884Z" fill="#BA499B"/>
<path d="M12.6395 34.1154C16.6016 34.1154 19.8135 31.0166 19.8135 27.1942C19.8135 23.3718 16.6016 20.2731 12.6395 20.2731C8.67749 20.2731 5.46564 23.3718 5.46564 27.1942C5.46564 31.0166 8.67749 34.1154 12.6395 34.1154Z" fill="#EE499A"/>
</g>
</g>
<defs>
<clipPath id="clip0_1_36">
<rect width="192" height="162" fill="white" transform="translate(0 15)"/>
</clipPath>
</defs>
</svg>
